<mxfile host="Electron" agent="Mozilla/5.0 (Windows NT 10.0; Win64; x64) AppleWebKit/537.36 (KHTML, like Gecko) draw.io/25.0.2 Chrome/128.0.6613.186 Electron/32.2.5 Safari/537.36" version="25.0.2">
  <diagram name="Page-1" id="5CIKKQVWiTD2BroC50kO">
    <mxGraphModel dx="1426" dy="882" grid="0" gridSize="10" guides="1" tooltips="1" connect="1" arrows="1" fold="1" page="1" pageScale="1" pageWidth="2000" pageHeight="2000" math="0" shadow="0">
      <root>
        <mxCell id="0" />
        <mxCell id="1" parent="0" />
        <mxCell id="Ll8bVCImaeoeoqFKkuEg-41" value="&lt;span style=&quot;font-size: 16px;&quot;&gt;server.ts&lt;/span&gt;" style="rounded=0;whiteSpace=wrap;html=1;dashed=1;verticalAlign=top;align=right;spacingRight=4;fillColor=none;" parent="1" vertex="1">
          <mxGeometry x="538" y="174" width="269" height="104" as="geometry" />
        </mxCell>
        <mxCell id="Ll8bVCImaeoeoqFKkuEg-51" value="" style="group;verticalAlign=bottom;align=right;" parent="1" vertex="1" connectable="0">
          <mxGeometry x="529" y="156" width="374" height="138" as="geometry" />
        </mxCell>
        <mxCell id="Ll8bVCImaeoeoqFKkuEg-53" value="" style="group;verticalAlign=top;" parent="Ll8bVCImaeoeoqFKkuEg-51" vertex="1" connectable="0">
          <mxGeometry width="374" height="138" as="geometry" />
        </mxCell>
        <mxCell id="Ll8bVCImaeoeoqFKkuEg-40" value="" style="group;fillColor=#6d8764;fontColor=#ffffff;strokeColor=#3A5431;spacingRight=5;" parent="1" vertex="1" connectable="0">
          <mxGeometry x="775" y="329" width="264" height="198" as="geometry" />
        </mxCell>
        <mxCell id="Ll8bVCImaeoeoqFKkuEg-39" value="" style="group" parent="Ll8bVCImaeoeoqFKkuEg-40" vertex="1" connectable="0">
          <mxGeometry width="264" height="198" as="geometry" />
        </mxCell>
        <mxCell id="Ll8bVCImaeoeoqFKkuEg-34" value="&lt;span style=&quot;font-size: 16px;&quot;&gt;storage.ts&lt;/span&gt;" style="rounded=0;whiteSpace=wrap;html=1;dashed=1;verticalAlign=top;align=right;spacingRight=5;" parent="Ll8bVCImaeoeoqFKkuEg-39" vertex="1">
          <mxGeometry width="263.99999999999994" height="198" as="geometry" />
        </mxCell>
        <mxCell id="Ll8bVCImaeoeoqFKkuEg-45" value="&lt;span style=&quot;font-size: 20px;&quot;&gt;PreparedFile&lt;/span&gt;" style="rounded=0;whiteSpace=wrap;html=1;fillColor=#6d8764;fontColor=#ffffff;strokeColor=#3A5431;strokeWidth=2;" parent="Ll8bVCImaeoeoqFKkuEg-39" vertex="1">
          <mxGeometry x="15" y="118" width="154" height="60" as="geometry" />
        </mxCell>
        <mxCell id="Ll8bVCImaeoeoqFKkuEg-49" value="" style="edgeStyle=orthogonalEdgeStyle;rounded=0;orthogonalLoop=1;jettySize=auto;html=1;" parent="Ll8bVCImaeoeoqFKkuEg-40" source="Ll8bVCImaeoeoqFKkuEg-25" target="Ll8bVCImaeoeoqFKkuEg-45" edge="1">
          <mxGeometry relative="1" as="geometry" />
        </mxCell>
        <mxCell id="Ll8bVCImaeoeoqFKkuEg-25" value="&lt;span style=&quot;font-size: 20px;&quot;&gt;Storage&lt;/span&gt;" style="rounded=0;whiteSpace=wrap;html=1;fillColor=#6d8764;fontColor=#ffffff;strokeColor=#3A5431;strokeWidth=2;" parent="Ll8bVCImaeoeoqFKkuEg-40" vertex="1">
          <mxGeometry x="32" y="21" width="120" height="60" as="geometry" />
        </mxCell>
        <mxCell id="Ll8bVCImaeoeoqFKkuEg-27" style="edgeStyle=orthogonalEdgeStyle;rounded=0;orthogonalLoop=1;jettySize=auto;html=1;entryX=0.5;entryY=0;entryDx=0;entryDy=0;curved=1;exitX=1;exitY=0.5;exitDx=0;exitDy=0;" parent="1" source="Ll8bVCImaeoeoqFKkuEg-50" target="Ll8bVCImaeoeoqFKkuEg-25" edge="1">
          <mxGeometry relative="1" as="geometry">
            <mxPoint x="871" y="103" as="sourcePoint" />
          </mxGeometry>
        </mxCell>
        <mxCell id="Ll8bVCImaeoeoqFKkuEg-54" value="" style="edgeStyle=orthogonalEdgeStyle;rounded=0;orthogonalLoop=1;jettySize=auto;html=1;curved=1;labelBorderColor=none;" parent="1" source="Ll8bVCImaeoeoqFKkuEg-10" target="Ll8bVCImaeoeoqFKkuEg-50" edge="1">
          <mxGeometry relative="1" as="geometry" />
        </mxCell>
        <mxCell id="Ll8bVCImaeoeoqFKkuEg-10" value="main.ts" style="rounded=0;whiteSpace=wrap;html=1;fillColor=#6d8764;fontColor=#ffffff;strokeColor=#3A5431;pointerEvents=0;align=center;verticalAlign=middle;fontFamily=Helvetica;fontSize=20;gradientColor=none;" parent="1" vertex="1">
          <mxGeometry x="316" y="114" width="120" height="60" as="geometry" />
        </mxCell>
        <mxCell id="Ll8bVCImaeoeoqFKkuEg-50" value="&lt;span style=&quot;font-size: 20px;&quot;&gt;serveStatic&lt;/span&gt;" style="whiteSpace=wrap;html=1;fillColor=#6d8764;strokeColor=#3A5431;fontColor=#ffffff;rounded=0;pointerEvents=0;align=center;verticalAlign=middle;fontFamily=Helvetica;fontSize=12;gradientColor=none;" parent="1" vertex="1">
          <mxGeometry x="552" y="202" width="164" height="46" as="geometry" />
        </mxCell>
        <mxCell id="Ll8bVCImaeoeoqFKkuEg-57" value="" style="group" parent="1" vertex="1" connectable="0">
          <mxGeometry x="300" y="418" width="225" height="104" as="geometry" />
        </mxCell>
        <mxCell id="Ll8bVCImaeoeoqFKkuEg-56" value="&lt;span style=&quot;font-size: 16px;&quot;&gt;logger.ts&lt;/span&gt;" style="rounded=0;whiteSpace=wrap;html=1;dashed=1;verticalAlign=top;align=right;spacingRight=4;fillColor=none;" parent="Ll8bVCImaeoeoqFKkuEg-57" vertex="1">
          <mxGeometry width="225" height="104" as="geometry" />
        </mxCell>
        <mxCell id="Ll8bVCImaeoeoqFKkuEg-28" value="&lt;font style=&quot;font-size: 20px;&quot;&gt;logger&lt;/font&gt;" style="whiteSpace=wrap;html=1;fillColor=#6d8764;strokeColor=#3A5431;fontColor=#ffffff;rounded=0;pointerEvents=0;align=center;verticalAlign=middle;fontFamily=Helvetica;fontSize=12;gradientColor=none;" parent="Ll8bVCImaeoeoqFKkuEg-57" vertex="1">
          <mxGeometry x="16" y="22" width="120" height="60" as="geometry" />
        </mxCell>
        <mxCell id="Ll8bVCImaeoeoqFKkuEg-61" value="" style="endArrow=classic;html=1;rounded=0;entryX=0.5;entryY=0;entryDx=0;entryDy=0;exitX=0.5;exitY=1;exitDx=0;exitDy=0;edgeStyle=orthogonalEdgeStyle;curved=1;endSize=6;" parent="1" source="Ll8bVCImaeoeoqFKkuEg-50" target="Ll8bVCImaeoeoqFKkuEg-28" edge="1">
          <mxGeometry width="50" height="50" relative="1" as="geometry">
            <mxPoint x="636" y="355" as="sourcePoint" />
            <mxPoint x="586" y="405" as="targetPoint" />
          </mxGeometry>
        </mxCell>
        <mxCell id="Ll8bVCImaeoeoqFKkuEg-62" value="" style="endArrow=none;dashed=1;html=1;rounded=0;" parent="1" edge="1">
          <mxGeometry width="50" height="50" relative="1" as="geometry">
            <mxPoint x="274" y="573" as="sourcePoint" />
            <mxPoint x="1182" y="573" as="targetPoint" />
          </mxGeometry>
        </mxCell>
        <mxCell id="Ll8bVCImaeoeoqFKkuEg-63" value="Console" style="rounded=0;whiteSpace=wrap;html=1;fillColor=#6d8764;fontColor=#ffffff;strokeColor=#3A5431;pointerEvents=0;align=center;verticalAlign=middle;fontFamily=Helvetica;fontSize=20;gradientColor=none;" parent="1" vertex="1">
          <mxGeometry x="319" y="679" width="120" height="60" as="geometry" />
        </mxCell>
        <mxCell id="Ll8bVCImaeoeoqFKkuEg-64" value="Server" style="rounded=0;whiteSpace=wrap;html=1;fillColor=#6d8764;fontColor=#ffffff;strokeColor=#3A5431;pointerEvents=0;align=center;verticalAlign=middle;fontFamily=Helvetica;fontSize=20;gradientColor=none;" parent="1" vertex="1">
          <mxGeometry x="574" y="679" width="120" height="60" as="geometry" />
        </mxCell>
        <mxCell id="Ll8bVCImaeoeoqFKkuEg-65" value="ReadableStream" style="rounded=0;whiteSpace=wrap;html=1;fillColor=#6d8764;fontColor=#ffffff;strokeColor=#3A5431;pointerEvents=0;align=center;verticalAlign=middle;fontFamily=Helvetica;fontSize=20;gradientColor=none;" parent="1" vertex="1">
          <mxGeometry x="769" y="679" width="200" height="60" as="geometry" />
        </mxCell>
        <mxCell id="Ll8bVCImaeoeoqFKkuEg-66" value="" style="endArrow=classic;html=1;rounded=0;exitX=0.5;exitY=1;exitDx=0;exitDy=0;entryX=0.5;entryY=0;entryDx=0;entryDy=0;" parent="1" source="Ll8bVCImaeoeoqFKkuEg-50" target="Ll8bVCImaeoeoqFKkuEg-64" edge="1">
          <mxGeometry width="50" height="50" relative="1" as="geometry">
            <mxPoint x="648" y="415" as="sourcePoint" />
            <mxPoint x="698" y="365" as="targetPoint" />
          </mxGeometry>
        </mxCell>
        <mxCell id="Ll8bVCImaeoeoqFKkuEg-67" value="" style="endArrow=classic;html=1;rounded=0;exitX=0.5;exitY=1;exitDx=0;exitDy=0;entryX=0.5;entryY=0;entryDx=0;entryDy=0;" parent="1" source="Ll8bVCImaeoeoqFKkuEg-28" target="Ll8bVCImaeoeoqFKkuEg-63" edge="1">
          <mxGeometry width="50" height="50" relative="1" as="geometry">
            <mxPoint x="648" y="415" as="sourcePoint" />
            <mxPoint x="698" y="365" as="targetPoint" />
          </mxGeometry>
        </mxCell>
        <mxCell id="Ll8bVCImaeoeoqFKkuEg-68" value="" style="endArrow=classic;html=1;rounded=0;entryX=0.5;entryY=0;entryDx=0;entryDy=0;exitX=0.5;exitY=1;exitDx=0;exitDy=0;" parent="1" source="Ll8bVCImaeoeoqFKkuEg-45" target="Ll8bVCImaeoeoqFKkuEg-65" edge="1">
          <mxGeometry width="50" height="50" relative="1" as="geometry">
            <mxPoint x="696" y="430" as="sourcePoint" />
            <mxPoint x="746" y="380" as="targetPoint" />
          </mxGeometry>
        </mxCell>
        <mxCell id="Ll8bVCImaeoeoqFKkuEg-69" value="Application" style="text;html=1;align=center;verticalAlign=middle;resizable=0;points=[];autosize=1;strokeColor=none;fillColor=none;fontSize=20;" parent="1" vertex="1">
          <mxGeometry x="1075" y="531" width="116" height="36" as="geometry" />
        </mxCell>
        <mxCell id="Ll8bVCImaeoeoqFKkuEg-70" value="Node.js" style="text;html=1;align=center;verticalAlign=middle;resizable=0;points=[];autosize=1;strokeColor=none;fillColor=none;fontSize=20;" parent="1" vertex="1">
          <mxGeometry x="1098" y="580" width="86" height="36" as="geometry" />
        </mxCell>
        <mxCell id="y4vYmijVDwhMg3_txOvq-1" value="" style="endArrow=classic;html=1;rounded=0;exitX=0.477;exitY=0.996;exitDx=0;exitDy=0;exitPerimeter=0;entryX=0.5;entryY=0;entryDx=0;entryDy=0;" parent="1" source="Ll8bVCImaeoeoqFKkuEg-10" target="Ll8bVCImaeoeoqFKkuEg-28" edge="1">
          <mxGeometry width="50" height="50" relative="1" as="geometry">
            <mxPoint x="424" y="276" as="sourcePoint" />
            <mxPoint x="378" y="408" as="targetPoint" />
          </mxGeometry>
        </mxCell>
      </root>
    </mxGraphModel>
  </diagram>
</mxfile>
